<svg xmlns="http://www.w3.org/2000/svg" version="1.1" xmlns:xlink="http://www.w3.org/1999/xlink" xmlns:svgjs="http://svgjs.dev/svgjs" width="1440" height="560" preserveAspectRatio="none" viewBox="0 0 1440 560">
    <g mask="url(&quot;#SvgjsMask1014&quot;)" fill="none">
        <rect width="1440" height="560" x="0" y="0" fill="url(&quot;#SvgjsLinearGradient1015&quot;)"></rect>
        <path d="M1464 560L0 560 L0 305Q86.19 271.19, 120 357.39Q145.75 263.14, 240 288.89Q315.36 244.25, 360 319.6Q420.06 307.66, 432 367.72Q460.66 276.38, 552 305.05Q580.95 262, 624 290.96Q706.57 253.52, 744 336.09Q797.85 269.94, 864 323.79Q942.63 282.42, 984 361.05Q989.76 294.81, 1056 300.58Q1109.94 234.52, 1176 288.47Q1240.86 281.33, 1248 346.18Q1298.74 324.93, 1320 375.67Q1347.47 331.14, 1392 358.61Q1419.41 314.02, 1464 341.43z" fill="#182f5d"></path>
        <path d="M1464 560L0 560 L0 366.72Q65.73 360.45, 72 426.17Q112.49 346.66, 192 387.15Q276.86 352.01, 312 436.87Q353.16 358.03, 432 399.19Q476.75 323.94, 552 368.68Q634.41 331.1, 672 413.51Q699 368.5, 744 395.5Q772.33 351.82, 816 380.15Q838.57 330.72, 888 353.29Q976.49 321.78, 1008 410.28Q1074.99 357.27, 1128 424.27Q1173.38 397.65, 1200 443.03Q1222.64 345.67, 1320 368.31Q1363.71 340.02, 1392 383.74Q1413.43 333.18, 1464 354.61z" fill="#25467d"></path>
        <path d="M1464 560L0 560 L0 471.31Q11.33 410.64, 72 421.97Q113.79 391.76, 144 433.55Q213.78 383.33, 264 453.1Q323.8 440.9, 336 500.7Q360.16 452.86, 408 477.02Q452.95 401.97, 528 446.92Q612.24 411.16, 648 495.4Q691.72 419.12, 768 462.84Q833.64 408.48, 888 474.12Q898.75 412.87, 960 423.62Q1001.57 393.19, 1032 434.76Q1102.72 385.49, 1152 456.21Q1217.7 449.91, 1224 515.62Q1265.14 436.76, 1344 477.91Q1390.28 404.19, 1464 450.47z" fill="#356cb1"></path>
        <path d="M1560 560L0 560 L0 537.84Q16.86 482.7, 72 499.56Q142.36 449.92, 192 520.29Q250.07 506.36, 264 564.43Q293.18 521.61, 336 550.79Q384.77 479.56, 456 528.33Q535.99 488.32, 576 568.31Q641.38 513.69, 696 579.07Q716.96 528.03, 768 548.99Q799.66 460.65, 888 492.31Q963 447.31, 1008 522.31Q1074.34 516.65, 1080 582.99Q1120.82 503.81, 1200 544.62Q1246.14 470.76, 1320 516.9Q1371.81 448.71, 1440 500.52Q1524.31 464.83, 1560 549.13z" fill="white"></path>
    </g>
    <defs>
        <mask id="SvgjsMask1014">
            <rect width="1440" height="560" fill="#ffffff"></rect>
        </mask>
        <linearGradient x1="100%" y1="50%" x2="0%" y2="50%" gradientUnits="userSpaceOnUse" id="SvgjsLinearGradient1015">
            <stop stop-color="#0e2a47" offset="0"></stop>
            <stop stop-color="rgba(67, 0, 126, 1)" offset="1"></stop>
        </linearGradient>
    </defs>
</svg>